# xmcd
#
# Track frame offsets: 
#        150
#        5900
#        21837
#        38360
#        59340
#        75352
#        93222
#        107735
#        143062
#        157090
#        175765
#        199767
#        217495
#        229572
#        247497
#        262797
#        283062
#        298835
#        317312
#
# Disc length: 4419 seconds
#
# Revision: 2
# Processed by: cddbd v1.5.2PL0 Copyright (c) Steve Scherf et al.
# Submitted via: ExactAudioCopy v1.3
#
DISCID=0c114113
DTITLE=Electric Light Orchestra - Afterglow [CD3]
DYEAR=1990
DGENRE=Rock
TTITLE0=Prologue
TTITLE1=Twilight
TTITLE2=Julie Don't Live Here
TTITLE3=Shine a Little Love
TTITLE4=When Time Stood Still
TTITLE5=Rain Is Falling
TTITLE6=The Bouncer
TTITLE7=Hello My Old Friend
TTITLE8=Hold On Tight
TTITLE9=Four Little Diamonds (Extended Intro)
TTITLE10=Mandalay
TTITLE11=Buildings Have Eyes
TTITLE12=So Serious
TTITLE13=Matter of Fact
TTITLE14=No Way Out
TTITLE15=Getting To the Point
TTITLE16=Calling America
TTITLE17=Destination Unknown
TTITLE18=Rock 'n' Roll Is King
EXTD=
EXTT0=
EXTT1=
EXTT2=
EXTT3=
EXTT4=
EXTT5=
EXTT6=
EXTT7=
EXTT8=
EXTT9=
EXTT10=
EXTT11=
EXTT12=
EXTT13=
EXTT14=
EXTT15=
EXTT16=
EXTT17=
EXTT18=
PLAYORDER=
